<svg width="56" height="56" viewBox="0 0 56 56" fill="none" xmlns="http://www.w3.org/2000/svg">
<path d="M10.6892 41.2375H8.0406C7.49219 41.2375 7.04736 41.6825 7.04736 42.2308C7.04736 42.7791 7.4923 43.224 8.0406 43.224H10.6892C11.2376 43.224 11.6825 42.7791 11.6825 42.2308C11.6825 41.6825 11.2376 41.2375 10.6892 41.2375Z" fill="#00CB62"/>
<path d="M10.6892 46.5347H8.0406C7.49219 46.5347 7.04736 46.9796 7.04736 47.5279C7.04736 48.0762 7.4923 48.5211 8.0406 48.5211H10.6892C11.2376 48.5211 11.6825 48.0762 11.6825 47.5279C11.6825 46.9796 11.2376 46.5347 10.6892 46.5347Z" fill="#00CB62"/>
<path d="M18.6352 41.2375H17.3109C16.7625 41.2375 16.3176 41.6825 16.3176 42.2308C16.3176 42.7791 16.7626 43.224 17.3109 43.224H18.6352C19.1836 43.224 19.6284 42.7791 19.6284 42.2308C19.6284 41.6825 19.1836 41.2375 18.6352 41.2375Z" fill="#00CB62"/>
<path d="M18.6352 46.5347H17.3109C16.7625 46.5347 16.3176 46.9796 16.3176 47.5279C16.3176 48.0762 16.7626 48.5211 17.3109 48.5211H18.6352C19.1836 48.5211 19.6284 48.0762 19.6284 47.5279C19.6284 46.9796 19.1836 46.5347 18.6352 46.5347Z" fill="#00CB62"/>
<path d="M10.6892 35.9402H8.0406C7.49219 35.9402 7.04736 36.3851 7.04736 36.9334C7.04736 37.4817 7.4923 37.9267 8.0406 37.9267H10.6892C11.2376 37.9267 11.6825 37.4817 11.6825 36.9334C11.6825 36.3851 11.2376 35.9402 10.6892 35.9402Z" fill="#00CB62"/>
<path d="M25.2569 31.9669C24.7085 31.9669 24.2636 32.4119 24.2636 32.9602V34.8807H16.9798V26.3385C16.9798 25.7901 16.5349 25.3453 15.9866 25.3453C15.4382 25.3453 14.9933 25.7902 14.9933 26.3385V29.3182H3.73647V23.6898C3.73647 23.1414 3.29153 22.6965 2.74323 22.6965C2.19494 22.6965 1.75 23.1416 1.75 23.6899V52.163C1.75 53.0761 2.49233 53.8184 3.40539 53.8184H24.5947C25.5078 53.8184 26.2501 53.0761 26.2501 52.163V32.9603C26.2502 32.4119 25.8053 31.9669 25.2569 31.9669ZM24.2636 51.832H3.73647V31.3048H14.9933V36.8673H24.2636V51.832Z" fill="#00CB62"/>
<path d="M53.068 1.78809H11.7711C11.3507 1.78809 10.9588 2.01438 10.7448 2.38298L7.17796 8.62446C6.96905 8.98912 6.96971 9.44182 7.18058 9.80659C7.39135 10.17 7.78324 10.3963 8.20357 10.3963H20.6567C20.6276 10.4894 20.5985 14.2891 20.5985 14.2891H11.2925C10.4124 14.2891 9.69599 15.0056 9.69599 15.8863V19.5903C9.69599 20.471 10.4125 21.1875 11.2925 21.1875H31.2752C32.1554 21.1875 32.8718 20.471 32.8718 19.5903V15.8863C32.8718 15.0056 32.1553 14.2891 31.2752 14.2891H22.585C22.585 14.2891 22.5552 10.4894 22.5268 10.3963H40.1291V54.2119H42.1156V46.8647L46.7508 51.4999V54.212H48.7373V10.3962H53.0679C53.7198 10.3962 54.2499 9.86598 54.2499 9.2129V2.9701C54.25 2.31834 53.7198 1.78809 53.068 1.78809ZM30.8853 19.201H11.6825V16.2756H30.8853V19.201ZM42.1156 16.8174L45.892 20.5938L42.1156 24.3702V16.8174ZM42.1156 26.6543L45.892 30.4307L42.1156 34.2071V26.6543ZM43.7834 25.5123L46.7508 22.5448V28.4797L43.7834 25.5123ZM46.7508 18.6429L43.7834 15.6754L46.7508 12.708V18.6429ZM40.8974 8.40976L44.6493 4.65787L48.4005 8.40976H40.8974ZM23.3648 5.13124L26.6433 8.40976H20.0869L23.3648 5.13124ZM18.1626 7.52513L14.412 3.77455H21.9125L18.1626 7.52513ZM24.8179 3.77455H32.3177L28.5678 7.52513L24.8179 3.77455ZM33.7706 5.13124L37.0491 8.40976H30.4921L33.7706 5.13124ZM38.9736 7.52513L35.223 3.77455H42.7235L38.9736 7.52513ZM12.0459 4.11023C12.0938 4.22595 16.2381 8.40976 16.2381 8.40976H9.58869L12.0459 4.11023ZM46.2536 10.3962L42.1157 14.5334V10.3962H46.2536ZM42.1156 36.4904L46.0614 40.4355L42.1156 44.5605V36.4904ZM46.7508 48.6901L43.7678 45.7071L46.7508 42.5889V48.6901ZM43.7834 35.349L46.7508 32.3816V38.3158L43.7834 35.349ZM52.2635 8.40976H51.1966C51.1862 8.39816 46.5749 3.77455 46.5749 3.77455H52.2635V8.40976Z" fill="#00CB62"/>
</svg>
