<svg width="84" height="84" viewBox="0 0 84 84" fill="none" xmlns="http://www.w3.org/2000/svg">
<rect width="84" height="84" rx="42" fill="#00CB62"/>
<path d="M41.9442 20.3422C42.7818 20.3375 44.5284 20.0537 44.6296 21.159C44.7474 22.4457 44.5575 23.8114 44.6595 25.0937C45.7573 25.4695 45.7779 25.6063 45.7743 26.7491C45.773 27.182 45.7549 27.7571 45.7843 28.1801C47.6108 28.8603 46.519 30.2579 44.6833 29.9241C44.6531 30.2923 44.6514 30.7433 44.6406 31.1186C45.1919 31.0649 46.3089 31.104 46.8996 31.1061C47.8287 31.1094 48.9071 31.076 49.823 31.1234C49.7955 30.6257 49.7917 30.4657 49.8121 29.9455C49.357 29.9653 48.7515 30.0287 48.3353 29.8359C47.1821 29.3018 47.7151 28.5292 48.6717 28.1887C48.7575 27.3769 48.5891 26.4028 48.8194 25.625C48.9216 25.2802 49.4767 25.2526 49.781 25.123C49.8463 24.7865 49.7797 24.4892 49.7947 24.1685C49.8478 23.1535 49.7369 22.0773 49.8295 21.0725C49.9442 20.2998 50.9214 20.3322 51.4971 20.3548C52.4565 20.3925 53.4151 20.2879 54.359 20.3916C54.7336 20.4327 54.9248 20.7351 55.0985 21.0269C55.1237 22.246 55.1505 23.9736 55.0976 25.1735C56.5856 25.2899 56.0771 26.5173 56.1676 27.6119C56.183 27.7974 56.1665 28.0224 56.166 28.2132C56.5219 28.2711 56.6753 28.3685 56.9705 28.5524L57.1779 29.0677C57.093 29.3139 57.0202 29.4636 56.9075 29.6951C56.3858 30.0161 55.7372 30.0316 55.1457 29.9632C55.1138 30.9909 55.2219 31.2318 55.3443 32.2134C55.4001 32.6607 55.3699 33.8467 55.3499 34.3096L55.4523 34.3065C57.0264 34.2665 58.6312 34.3236 60.2086 34.3011C60.9302 34.2908 61.6784 34.2756 62.3929 34.3821C62.8561 34.4511 62.9897 34.7226 63.015 35.1656C63.0431 36.6714 63.0285 38.1784 63.0269 39.6838L63.0249 48.1083L63.0292 53.8402C63.031 54.8176 63.0479 55.8032 63.0088 56.7767C62.9859 57.3475 62.4154 57.5393 61.9374 57.5311C60.9429 57.5138 59.7913 57.6013 58.8122 57.5412C57.8845 57.4842 56.1967 57.6778 55.3514 57.4907C55.3665 58.1618 55.3765 58.8329 55.3815 59.5041C55.3782 60.7931 54.5153 60.7559 53.4799 60.7151C53.4877 61.2749 53.5809 63.2761 53.255 63.4259C52.1673 63.9258 49.0323 63.5578 47.7183 63.696C47.2708 63.743 46.5354 63.5981 46.4205 63.3514C46.1352 62.7388 46.2599 61.3975 46.2709 60.6852C44.9186 60.7509 43.2374 60.7049 41.8726 60.6984C41.063 60.6969 40.2534 60.701 39.444 60.711C38.9423 60.7154 38.2111 60.7508 37.7346 60.6619C37.802 61.3074 37.7546 62.0613 37.7486 62.7119C37.7462 62.9702 37.617 63.458 37.3351 63.5374C37.05 63.6176 36.7598 63.6761 36.4625 63.6855C35.6205 63.712 34.7772 63.6647 33.9348 63.6735C33.0615 63.6765 32.1572 63.703 31.2846 63.6677C31.1854 63.6637 30.8091 63.4822 30.6978 63.4295C30.3926 62.7162 30.5028 61.5404 30.5231 60.7307L30.4627 60.7304C28.0032 60.7155 28.6112 59.5969 28.6522 57.5233C27.1809 57.6296 25.5707 57.4734 24.0869 57.5428C23.4625 57.572 22.8066 57.5356 22.1819 57.5464C21.467 57.5589 20.9659 57.3481 20.9654 56.5485C20.9631 55.2897 20.9721 54.0346 20.9727 52.7777L20.9743 44.8274L20.9696 38.5759C20.9674 37.4172 20.9483 36.2533 20.9866 35.0956C21.0068 34.486 21.4341 34.3554 21.9617 34.3276C22.7572 34.2857 23.561 34.3025 24.3581 34.3025C25.7851 34.2976 27.2121 34.3022 28.639 34.3163C28.6278 33.9109 28.6018 32.6464 28.6517 32.2827C28.7851 31.3099 28.8685 30.9683 28.8679 29.9769C28.0518 29.9943 27.7776 30.0727 27.0833 29.6835C26.6271 28.9467 26.9386 28.3639 27.7791 28.2301C27.8855 27.0415 27.386 25.2444 28.8842 25.1939C28.8813 25.162 28.8789 25.1301 28.8771 25.0982C28.8038 23.8501 28.8864 22.3739 28.9276 21.1208C28.944 20.6208 29.5275 20.3147 29.9397 20.3575C30.4989 20.4157 33.7738 20.1554 34.0045 20.658C34.3259 21.3585 34.2006 24.3036 34.1765 25.1701C34.6439 25.2171 34.7513 25.2096 35.1309 25.5039C35.3864 26.1374 35.3077 27.4606 35.3034 28.2058C35.6444 28.3022 35.8951 28.4315 36.1342 28.6983C36.4249 29.0226 36.3067 29.3701 35.9936 29.6191C35.496 30.0149 34.8118 30.0028 34.2128 29.9446L34.1725 31.0918C35.8956 31.1229 37.6344 31.0771 39.3479 31.1147L39.3538 29.9709C38.9294 29.9767 38.1215 30.0374 37.7783 29.822C36.8753 29.2554 37.3924 28.4644 38.1959 28.2075C38.2536 27.493 38.1412 26.4399 38.2893 25.7717C38.3624 25.4423 39.0436 25.1934 39.2867 25.086C39.2984 25.0808 39.3413 24.7477 39.344 24.6816C39.3921 23.5201 39.2937 22.3196 39.371 21.1651C39.3839 20.9716 39.5163 20.7333 39.6433 20.5892C39.9677 20.2211 41.3821 20.3385 41.9442 20.3422ZM22.581 55.8231C24.552 55.8595 26.6486 55.7771 28.5794 55.8393C28.5953 55.8116 28.6149 55.7775 28.6382 55.737C28.6368 54.556 28.6363 53.0217 28.6361 51.8767L28.6342 41.5488C28.634 39.8148 28.5772 37.6461 28.6586 35.9411C26.6381 35.9504 24.6175 35.949 22.5971 35.9366C22.6557 36.8942 22.6019 38.2404 22.5994 39.2372L22.595 45.4755L22.5975 52.2262C22.5978 53.2876 22.6433 54.7888 22.581 55.8231ZM55.3462 55.8246C57.3565 55.8356 59.4099 55.8187 61.4152 55.8464C61.3352 54.6402 61.3944 52.7712 61.3948 51.5275L61.3973 43.2471L61.3922 38.2958C61.3902 37.7157 61.3343 36.4412 61.3997 35.9485C60.0868 35.9317 58.7737 35.9285 57.4606 35.9389C56.8672 35.9399 55.9322 35.9677 55.3676 35.9098C55.3267 37.5411 55.3623 39.3375 55.362 40.9778L55.36 50.7361C55.3598 52.332 55.4095 54.2646 55.3462 55.8246ZM38.6664 32.7941C38.6099 34.9032 38.6563 37.1867 38.6566 39.3102L38.6574 51.5763L38.6567 56.7627C38.6561 57.0795 38.6313 58.7581 38.6793 58.9927L38.7598 59.047L41.2191 59.0667C41.1695 58.4847 41.191 57.7112 41.1915 57.1152L41.1931 53.9116V36.9054C41.193 36.5088 41.2278 32.9414 41.1406 32.8017L41.0894 32.79C40.3985 32.8005 39.3477 32.8413 38.6664 32.7941ZM46.9848 59.0429C47.8239 59.0558 48.6631 59.0598 49.5022 59.0548C49.5704 58.4865 49.532 56.9115 49.5316 56.2593L49.5283 50.7661L49.5248 32.7862C48.959 32.7964 47.4551 32.8525 46.9799 32.7371C47.0376 34.4596 46.997 36.3942 46.9971 38.1283L46.9981 47.8447L46.9984 55.2256C46.9984 56.3562 47.0482 57.9579 46.9848 59.0429ZM42.8007 59.0685C43.2559 59.0558 45.0386 59.1171 45.3344 59.0369C45.3088 58.152 45.3392 57.1868 45.3402 56.2907L45.3415 50.7004L45.3397 32.7904C44.8196 32.8005 43.2792 32.8645 42.8319 32.7724C42.7805 34.9966 42.8139 37.3441 42.8139 39.5782L42.8144 51.6006L42.8155 56.4634C42.8161 57.2323 42.8533 58.3307 42.8007 59.0685ZM50.3787 28.2561C51.4288 28.2023 53.3256 28.2492 54.4329 28.269L54.519 28.2065C54.5435 27.7706 54.5232 27.3259 54.5513 26.8985C53.915 26.9184 50.852 26.9688 50.3859 26.8472C50.4102 27.3166 50.4078 27.7869 50.3787 28.2561ZM51.1821 32.7636C51.1149 33.2649 51.1511 34.7332 51.1513 35.3229L51.1533 40.4554C51.154 46.6249 51.2143 52.901 51.1434 59.0621C51.8614 59.0071 52.9113 59.0525 53.6552 59.0648L53.6726 32.7984C53.1585 32.8085 51.5724 32.8767 51.1821 32.7636ZM32.1354 61.9709C33.1866 61.9517 34.9463 61.9678 36.0606 61.9637C36.0853 61.9403 36.11 61.9169 36.1347 61.8936C36.1228 61.4868 36.1459 61.0963 36.1659 60.6907L33.6143 60.7101C33.2093 60.7128 32.5443 60.7351 32.1577 60.6978C32.1569 61.1281 32.1558 61.5401 32.1354 61.9709ZM29.4675 26.8463C29.4801 27.3151 29.49 27.7935 29.46 28.2621C29.9582 28.2232 30.5437 28.2334 31.0448 28.2542C31.8836 28.289 32.7708 28.2301 33.6028 28.282C33.6417 27.8596 33.5858 27.3695 33.6263 26.8913C33.0337 26.9185 29.8956 26.97 29.4675 26.8463ZM37.0045 59.0351C36.942 58.0972 37.0038 56.4811 37.0046 55.4909L37.0064 48.2373L37.0054 38.1027C37.0052 36.3986 36.9558 34.437 37.0162 32.7669C36.5081 32.7932 34.9283 32.8599 34.4979 32.7496C34.4029 35.0872 34.4796 38.0108 34.4807 40.3853L34.4829 52.5181C34.4831 54.6752 34.5101 56.9003 34.4776 59.0523C34.8952 59.0512 36.7379 59.1117 37.0045 59.0351ZM47.8719 61.9807C48.7173 61.9231 50.9789 61.9375 51.8715 61.9749C51.8173 61.5735 51.8392 61.1111 51.8709 60.7057C51.0518 60.6983 50.2327 60.6963 49.4136 60.6998C48.9571 60.7007 48.2977 60.7216 47.8601 60.6688C47.8883 61.1055 47.8922 61.5435 47.8719 61.9807ZM39.9396 26.8358C39.9394 27.2861 39.9515 27.8091 39.9157 28.2521L42.4754 28.2639C42.8496 28.2635 43.7444 28.2404 44.0643 28.2783C44.0636 27.812 44.0716 27.3457 44.0884 26.8796C43.6024 26.9276 40.3532 26.9713 39.9396 26.8358ZM41.018 29.8881C41.015 30.2655 41.0238 30.7426 40.9829 31.1088C41.3928 31.0754 42.6097 31.0775 43.0107 31.1324C43.0123 30.7361 43.0096 30.3325 43.0161 29.9371C42.5358 29.9636 41.4418 30.0151 41.018 29.8881ZM32.5534 22.0382C32.0262 22.0407 31.0125 22.07 30.5291 22.0163C30.5794 22.6833 30.5849 24.5426 30.5296 25.1991C31.2019 25.1954 31.8743 25.198 32.5466 25.2068C32.5545 24.1666 32.5181 23.0716 32.5534 22.0382ZM40.9971 25.2026C41.6469 25.1744 42.3024 25.191 42.953 25.1997C43.0708 25.0309 43.0039 22.467 43.0168 22.0419C42.4866 22.0516 41.4869 22.0946 41.0012 22.0186C41.0434 23.0375 41.0207 24.1792 40.9971 25.2026ZM32.8464 59.0702C32.8903 58.1791 32.8579 57.075 32.8572 56.1667L32.8556 50.8835L32.8587 32.8012C32.1745 32.8046 30.9798 32.8751 30.3712 32.8205C30.2575 33.154 30.3324 37.1355 30.3322 37.7862L30.3307 51.6575L30.332 56.2463C30.3319 57.1429 30.3539 58.1516 30.3072 59.0398C31.1538 59.0379 32.0002 59.048 32.8464 59.0702ZM30.5523 29.8904C30.5638 30.2959 30.5589 30.7018 30.5376 31.107C31.2146 31.0877 31.8867 31.1032 32.5638 31.1139C32.5294 30.6879 32.5407 30.3484 32.5527 29.9195C32.0619 29.9523 31.0116 29.9854 30.5523 29.8904ZM51.4479 29.8863C51.4569 30.3096 51.4602 30.6841 51.4443 31.1067C51.8423 31.0961 53.1959 31.1355 53.4673 31.099C53.423 30.7113 53.4447 30.3219 53.4568 29.9319C52.9292 29.9465 51.9358 29.993 51.4479 29.8863ZM51.4456 25.1982C51.7473 25.1995 53.3201 25.2327 53.4671 25.1763C53.4041 24.3922 53.4435 22.8423 53.4648 22.0349C52.8414 22.0372 52.0525 22.0609 51.4426 22.0303C51.4632 22.9611 51.489 24.2772 51.4456 25.1982Z" fill="white"/>
</svg>
