<svg width="360" height="169" viewBox="0 0 360 169" fill="none" xmlns="http://www.w3.org/2000/svg">
<path d="M250.487 17.9615C249.898 20.431 249.458 23.0108 248.957 25.5068C247.341 33.5387 245.639 41.5588 244.048 49.5936C243.922 50.2257 243.63 50.824 243.182 51.2812C242.505 51.5119 242.437 51.2768 242.027 50.7299C241.728 49.6054 243.972 40.4784 244.362 38.5586C246.026 30.2548 247.741 21.9613 249.508 13.678C250.273 9.96046 251.312 4.41429 252.339 0.668823C252.434 0.323379 252.862 0.126419 253.16 -4.87835e-07C253.444 0.0661464 253.789 0.18962 253.848 0.488021C254.329 2.88406 253.587 7.79816 253.387 10.1398L251.993 27.3075C251.372 35.1777 250.91 44.7633 249.956 52.4718C255.385 46.7698 260.553 40.4328 265.864 34.6118C267.569 32.742 273.017 26.0095 274.696 24.9688C275.121 24.985 275.211 25.1114 275.568 25.3627C275.962 26.1683 275.252 27.1311 274.824 27.8411C273.505 30.0328 272.139 32.1966 270.814 34.3869L257.682 56.2585C261.003 54.274 264.846 52.4042 268.286 50.6167L282.8 42.9803C287.548 40.5078 292.311 38.0603 297.086 35.6363C298.281 35.0248 299.518 34.356 300.721 33.7695C301.952 33.1683 304.642 31.2661 305.948 32.1422C306.229 32.9448 305.305 33.696 304.696 34.1061C301.296 36.3963 297.873 38.6556 294.459 40.9253L279.302 51.0768C275.032 53.9036 269.794 57.2727 265.681 60.2612C268.028 59.8349 279.462 57.4756 280.899 57.7167C281.402 58.1018 281.226 57.8651 281.456 58.4443C281.305 59.5526 279.586 60.0171 278.616 60.442C272.114 63.2908 265.529 65.9646 259.025 68.8061C258.001 69.2529 256.975 68.9487 257.384 67.6727C258.505 66.6041 270.364 62.0295 272.522 60.9535C270.472 61.3225 261.903 63.2658 260.696 62.4852C260.477 61.8958 260.46 62.1589 260.579 61.6591C261.744 60.3258 266.976 57.0522 268.684 55.8601C275.68 50.9769 283.227 46.348 290.19 41.4486C287.75 42.2923 284.85 44.1033 282.496 45.3366L265.244 54.3666C262.648 55.7381 260.062 57.1463 257.454 58.4972C256.6 58.9397 255.689 59.3939 254.715 59.2013C254.443 58.9705 254.341 58.8765 254.279 58.4972C254.098 57.3947 267.117 37.7501 268.416 34.6426C268.429 34.6132 268.443 34.5824 268.456 34.553C265.931 37.4091 250.77 55.0766 249.07 55.913C248.606 55.8763 248.542 55.9159 248.175 55.6278C247.645 53.8477 250.533 21.7055 250.921 18.2599L251.216 15.3229C250.881 16.3225 250.715 16.931 250.487 17.9615Z" fill="#00CB62"/>
<path d="M0 153.434C13.8837 143.222 28.3585 144.301 44.0956 139.016C51.4465 136.441 58.5246 132.35 64.7075 127.691C69.2144 124.294 73.6053 119.978 76.8625 115.419C78.4038 113.262 78.8906 111.656 79.6268 109.216C79.668 109.08 80.0425 109.012 80.1839 109C81.3536 109.476 81.2046 112.999 81.1348 114.068C81.7918 113.408 82.4526 112.741 83.1278 112.099C83.538 111.71 84.235 110.93 84.7938 111.397C85.1271 112.301 84.2658 114.502 83.866 115.36C86.0531 113.885 87.992 112.342 90.0016 110.647C90.3738 110.332 90.7048 110.226 91.0788 110.59C91.205 111.03 91.0556 111.277 90.8229 111.668C89.6321 113.675 88.1756 116.204 86.6953 118.017C87.3292 117.678 89.105 116.514 89.6545 117.187C89.7099 117.883 88.7916 119.026 88.33 119.55L88.2473 119.643C89.7332 119.062 92.0702 118.137 93.661 118.454C93.9902 118.52 94.1772 119.217 93.7585 119.425C92.1981 120.201 91.0296 120.855 89.7126 122.015C87.4472 124.014 85.8243 126.523 83.6917 128.639C78.583 133.936 71.931 138.554 65.3995 142.025C60.842 144.448 55.1169 146.726 50.1687 148.273C45.0704 149.866 39.7711 150.787 34.591 152.003C21.6812 155.038 9.28575 159.264 0 169L0 167.339C7.99526 158.715 22.0812 153.731 33.3631 151.104C37.9209 150.044 43.0569 149.109 47.529 147.833C53.998 146 60.2395 143.468 66.1393 140.286C72.1334 137.086 78.5813 132.249 83.238 127.347C85.6297 124.83 86.8624 122.759 89.6249 120.468C88.7644 120.75 86.6497 122.092 86.0576 121.6C85.9249 120.868 86.9116 119.571 87.3434 118.928C86.8111 119.278 84.555 120.962 84.0483 120.151C84.0151 119.193 85.528 117.526 86.169 116.673C86.9229 115.655 87.6456 114.614 88.3359 113.553C87.441 114.282 82.6458 118.321 81.8491 117.205C81.7712 116.606 83.0332 114.305 83.3866 113.572C82.716 114.225 80.6091 116.523 79.701 116.05C79.466 115.606 79.9852 113.354 80.0128 112.299C74.4413 124.466 56.676 135.896 44.1642 140.234C36.6999 142.821 27.2915 144.1 19.5086 145.966C11.4122 147.909 6.68593 150.195 0 154.767L0 153.434Z" fill="#00CB62"/>
<path d="M261.179 105.061C259.752 104.706 254.958 104.205 254.018 105.455C253.997 105.628 253.967 105.923 254.112 106.035C255.224 106.89 257.413 107.127 258.802 107.855C260.415 108.623 261.726 109.576 263.069 110.747C278.753 124.415 303.017 127.659 322.852 123.001C333.521 120.496 343.685 116.337 355 117.721V116.34C352.876 116.164 350.842 116.042 348.701 116.157C339.977 116.626 331.749 119.415 323.341 121.536C309.364 125.052 294.166 124.297 280.607 119.45C274.767 117.363 269.04 114.189 264.398 110.093C262.119 108.082 260.465 107.118 257.673 105.934C261.25 106.026 266.132 108.331 260.862 102.907C261.69 103.232 265.351 105.06 265.916 104.765C266.106 104.665 266.255 104.451 266.276 104.237C266.353 103.468 261.389 97.4426 260.643 96.4614C261.6 97.1716 266.862 101.062 267.794 99.7008C267.886 99.0004 266.815 97.4759 266.395 96.7332C267.051 97.2377 269.775 99.5986 270.344 98.6753C270.402 97.6913 269.64 96.5401 269.325 95.5659C269.112 94.9078 269.038 94.575 268.913 93.8822C272.464 101.173 283.781 107.15 291.045 109.708C304.158 114.325 317.758 114.505 330.684 109.26C338.336 106.156 346.602 103.445 355 103.359V102.032C350.609 101.882 345.562 102.976 341.347 104.178C335.884 105.736 330.607 108.128 325.169 109.757C321.789 110.801 318.303 111.47 314.774 111.752C300.926 112.9 283.656 107.603 273.526 97.857C272.213 96.5932 270.911 94.8746 270.022 93.2694C269.556 92.4262 269.267 90.5568 268.637 90.0281C266.323 89.542 267.904 95.5035 268.34 96.6047C267.302 95.8238 265.547 93.977 264.533 93.7947C263.55 94.146 265.341 97.4325 265.655 98.0874C263.406 96.8439 261.364 95.5493 259.546 93.7153C259.078 93.2423 258.086 92.1752 257.384 92.4395C257.331 92.5186 257.292 92.5631 257.271 92.6651C256.943 94.2911 262.54 101.089 263.7 102.636C262.343 102.021 259.335 100.61 257.906 101.079C257.799 101.192 257.707 101.229 257.707 101.394C257.708 102.094 260.513 104.385 261.179 105.061Z" fill="#00CB62"/>
<rect y="143" width="18" height="26" fill="url(#paint0_linear_2013_2045)"/>
<rect x="360" y="128" width="20" height="30" transform="rotate(180 360 128)" fill="url(#paint1_linear_2013_2045)"/>
<path d="M97.3 1.60597C97.3885 1.58805 97.477 1.57125 97.5658 1.55588C97.8079 1.51371 98.1701 1.45224 98.3683 1.63014C98.9134 2.11948 102.205 11.7515 102.767 13.2946L112.287 39.2163C113.499 42.5085 115.437 47.3974 116.424 50.8741C116.486 51.0928 116.198 51.2807 116.028 51.4347C115.55 51.5118 115.781 51.5296 115.311 51.3537C114.413 50.3474 102.78 18.0079 101.519 14.2974C101.073 14.9618 109.596 51.7814 110.31 55.4563C110.429 56.0713 110.524 56.5148 109.953 56.8762C109.662 56.8856 109.485 56.9299 109.234 56.7193C108.155 55.812 106.999 54.5727 106.02 53.5674L97.3719 44.5607C96.9592 44.1344 95.554 42.5637 95.2169 42.3519C95.306 42.6958 97.1701 45.1596 97.5276 45.649L104.64 55.4375C105.541 56.6673 109.03 61.0854 109.284 62.3642C109.042 62.8107 109.21 62.647 108.769 62.8827C107.906 62.9186 106.343 61.8016 105.533 61.3486L98.4522 57.313L76.8926 45.1662L70.4905 41.5606C69.3211 40.8972 67.6758 39.9003 66.4907 39.3547L66.353 39.2928C69.3697 41.7371 74.0511 44.8367 77.3049 47.1183L97.4385 61.2209L103.205 65.283C104.279 66.0344 106.517 67.509 107.305 68.3517C107.461 68.858 107.431 68.5954 107.308 69.1761C106.602 69.7112 103.693 69.1872 102.697 69.0739C100.299 68.7871 97.8979 68.5251 95.4941 68.2878C97.9811 69.3004 100.609 70.0901 103.073 71.171C103.809 71.4942 104.365 71.9596 103.805 72.7443C102.753 73.1164 96.6345 72.955 95.0026 72.9972C88.4028 73.1679 81.6095 72.9883 75.0251 73.2015C80.3308 74.2392 92.5301 74.3492 98.3516 75.488C98.6078 75.5381 98.6866 75.8857 98.7394 76.1189C98.5838 76.6228 98.7262 76.4419 98.3875 76.7449C97.8544 76.8745 97.2451 76.7733 96.6846 76.7249C94.0966 76.4091 90.7463 76.2292 88.087 75.9962C81.878 75.4358 75.666 74.907 69.4512 74.4096C66.8777 74.2196 64.3077 73.9885 61.7423 73.7165C60.7535 73.614 59.2634 73.7931 58.5438 73.1112C58.3957 72.6628 58.396 72.8814 58.5422 72.4318C59.5415 71.5134 63.8369 71.7913 65.3139 71.7891L73.5903 71.7032C82.0283 71.5936 90.7965 71.3422 99.2178 71.3988C96.4203 70.2586 93.535 69.2891 90.7152 68.2062C89.9829 67.9248 89.327 67.7461 89.0276 67.0753C89.0877 66.5302 88.9948 66.7719 89.3214 66.3237C89.9627 65.9565 93.4582 66.5046 94.3924 66.6033L103.783 67.6043C89.6555 57.7909 75.5824 47.9019 61.5639 37.9375C59.0726 36.1582 56.5808 34.379 54.0891 32.6009C53.4309 32.1312 51.155 30.8118 52.8109 30.0528C53.9288 30.1074 54.6811 30.9005 55.6348 31.3983C58.6872 32.9919 61.6604 34.7456 64.6602 36.4345L85.4347 48.1267C90.1305 50.759 94.8127 53.4147 99.4813 56.0936C101.51 57.251 103.813 58.4318 105.747 59.6679L92.7207 41.784C91.1385 39.611 89.5325 37.448 87.9544 35.2718C87.379 34.4784 86.3371 33.2945 86.8359 32.3061C87.825 31.8145 88.719 33.2462 89.4167 33.9745C90.5803 35.1973 91.7535 36.4111 92.9358 37.6162C98.0838 42.9153 103.202 48.2427 108.29 53.598C107.622 51.553 106.701 46.6824 106.215 44.4354L102.679 28.2461C101.422 22.6156 100.202 16.9769 99.0179 11.3304C98.3892 8.42538 97.7216 5.48438 97.182 2.55773C97.1106 2.17047 97.1734 1.96876 97.3 1.60597Z" fill="#00CB62"/>
<defs>
<linearGradient id="paint0_linear_2013_2045" x1="16.2537" y1="148.608" x2="3.52015" y2="155.526" gradientUnits="userSpaceOnUse">
<stop stop-color="white" stop-opacity="0"/>
<stop offset="1" stop-color="white"/>
</linearGradient>
<linearGradient id="paint1_linear_2013_2045" x1="375.821" y1="149.176" x2="365.675" y2="148.116" gradientUnits="userSpaceOnUse">
<stop stop-color="white" stop-opacity="0"/>
<stop offset="1" stop-color="white"/>
</linearGradient>
</defs>
</svg>
